<svg xmlns="http://www.w3.org/2000/svg" viewBox="0 0 459.89 354.77"><defs><style>.cls-1{font-size:62.17px;font-family:Metrosant-Regular, Metrosant;}.cls-1,.cls-3{fill:#fff;}.cls-2{fill:#dbb107;}</style></defs><g id="Layer_2" data-name="Layer 2"><g id="Layer_1-2" data-name="Layer 1"><text class="cls-1" transform="translate(0 336.24) scale(0.86 1)">Sport Legends</text><path class="cls-2" d="M297.52,236.42H295L283.6,225a74.43,74.43,0,0,1-10.27,12.86,71.42,71.42,0,0,1-12.9,10.27l21,21h48.84A32.75,32.75,0,0,0,297.52,236.42Z"/><path class="cls-2" d="M253.68,195.12l-4.74-4.74-25.83-25.83h0L190.4,131.84l-29-29h0l-3.29-3.29L147.2,134.94l3.29,3.29,53.4,53.4,29,29.05-.24,0a22.59,22.59,0,0,1,3,3.33c3.35-3.72,6.7-7.45,9.94-11.33,3.94-4.72,7.65-9.47,11.49-14A45,45,0,0,1,253.68,195.12Z"/><path class="cls-3" d="M232.55,104.8a8.53,8.53,0,0,1-.33-11.87,8.26,8.26,0,0,1,5.86-2.45,8.11,8.11,0,0,1,5.85,2.41l24.89,24.89c7.59,7.59,11.38,4.34,15.72,0,8.7-8.69,7.4-12.38-5.89-36.47C263.44,53.72,257,22.56,279.35.16l.16-.16A61.43,61.43,0,0,0,252.2,60.34a39.37,39.37,0,0,0-12.32-2.57,41,41,0,0,0-30.75,69.92l35.25,35.25a32.21,32.21,0,0,1,8.91,28.69,24.21,24.21,0,0,1-2.78,9,25.46,25.46,0,0,1-2.32,5.45c-3.54,6.34-9.93,11-19.13,11.45a31.29,31.29,0,0,1-7.69,1,32.37,32.37,0,0,1-23-9.54l-56.56-56.6-5.43,17.56a105.12,105.12,0,0,1-6.76,16.59l45.62,45.58a65.28,65.28,0,0,0,95.51-3.43c22.64-26.08,20-65.67-4.47-90.11Z"/></g></g></svg>